<?xml version="1.0" encoding="utf-8"?>
<!-- Generator: Adobe Illustrator 23.1.0, SVG Export Plug-In . SVG Version: 6.00 Build 0)  -->
<svg version="1.1" id="Layer_1" xmlns="http://www.w3.org/2000/svg" xmlns:xlink="http://www.w3.org/1999/xlink" x="0px" y="0px"
	 viewBox="0 0 128 128" style="enable-background:new 0 0 128 128;" xml:space="preserve">
<style type="text/css">
	.st0{fill:#FFFFFF;}
</style>
<title>a</title>
<path class="st0" d="M125.3,27c-0.2-0.6-0.7-0.9-1.3-0.7c-0.2,0-0.3,0.1-0.5,0.3l-17.2,17.2c-2.3,2.3-6.1,2.3-8.5,0L84.2,30
	c-2.3-2.3-2.3-6.1,0-8.5l17.2-17.2c0.4-0.4,0.4-1.1,0-1.5c-0.1-0.1-0.3-0.2-0.5-0.3C82-2.8,62.2,8.1,56.8,27
	c-2.1,7.4-1.8,15.2,0.9,22.4l-52,52c-5.9,5.8-5.9,15.3-0.1,21.1c0,0,0,0,0.1,0.1c5.8,5.6,15,5.5,20.7-0.2l52.2-52.2
	c18.4,6.9,39-2.4,45.9-20.9C127.2,42.2,127.5,34.4,125.3,27L125.3,27z"/>
</svg>
